<svg width="22" height="12" viewBox="0 0 22 12" fill="none" xmlns="http://www.w3.org/2000/svg">
<path opacity="0.35" d="M16.8477 1H3.08219C1.93223 1 1 1.93223 1 3.08219V8.6347C1 9.78467 1.93223 10.7169 3.08219 10.7169H16.8477C17.9977 10.7169 18.9299 9.78467 18.9299 8.6347V3.08219C18.9299 1.93223 17.9977 1 16.8477 1Z" stroke="white"/>
<path opacity="0.4" d="M20.0222 4.39062V7.59401C20.6212 7.3227 21.0112 6.69152 21.0112 5.99232C21.0112 5.29305 20.6212 4.66193 20.0222 4.39062Z" fill="white"/>
<path d="M16.8618 2.25488H3.06847C2.55738 2.25488 2.14307 2.6692 2.14307 3.1803V8.53704C2.14307 9.04814 2.55738 9.46246 3.06847 9.46246H16.8618C17.3729 9.46246 17.7872 9.04814 17.7872 8.53704V3.1803C17.7872 2.6692 17.3729 2.25488 16.8618 2.25488Z" fill="white"/>
</svg>
