<svg width="21" height="36" viewBox="0 0 21 36" fill="none" xmlns="http://www.w3.org/2000/svg">
<path d="M4.29184 28.5154C4.29865 28.4193 4.33989 28.3289 4.40799 28.2608L12.4171 20.2517C12.4852 20.1836 12.5756 20.1423 12.6717 20.1355L19.0107 19.6862C19.3799 19.66 19.5836 20.1063 19.3218 20.368L4.52432 35.1655C4.26257 35.4273 3.8163 35.2236 3.84248 34.8544L4.29184 28.5154Z" fill="white"/>
<path d="M12.4155 15.7876C12.3194 15.7808 12.229 15.7396 12.1609 15.6715L4.15179 7.66234C4.08369 7.59423 4.04244 7.50385 4.03563 7.40778L3.58628 1.06876C3.5601 0.699509 4.00636 0.495877 4.26812 0.75763L19.0656 15.5551C19.3274 15.8169 19.1237 16.2631 18.7545 16.237L12.4155 15.7876Z" fill="white"/>
</svg>
