<svg width="43" height="43" viewBox="0 0 43 43" fill="none" xmlns="http://www.w3.org/2000/svg">
<path d="M24.2827 34.2171C24.2895 34.121 24.3307 34.0306 24.3988 33.9625L33.7431 24.6182C33.8112 24.5501 33.9016 24.5088 33.9977 24.502L41.5641 23.9657C41.9334 23.9395 42.137 24.3858 41.8752 24.6475L24.4282 42.0946C24.1664 42.3564 23.7201 42.1527 23.7463 41.7835L24.2827 34.2171Z" fill="#050505"/>
<path d="M33.6998 18.7388C33.6038 18.732 33.5134 18.6908 33.4453 18.6226L24.101 9.27835C24.0329 9.21024 23.9916 9.11986 23.9848 9.02379L23.4485 1.45737C23.4223 1.08812 23.8685 0.884487 24.1303 1.14624L41.5774 18.5933C41.8391 18.8551 41.6355 19.3013 41.2663 19.2752L33.6998 18.7388Z" fill="#050505"/>
<path d="M18.3825 9.01928C18.3757 9.11535 18.3345 9.20573 18.2664 9.27384L8.92208 18.6181C8.85398 18.6862 8.76359 18.7275 8.66752 18.7343L1.1011 19.2707C0.731854 19.2968 0.528222 18.8506 0.789977 18.5888L18.2371 1.14173C18.4988 0.879977 18.9451 1.08361 18.9189 1.45286L18.3825 9.01928Z" fill="#050505"/>
<path d="M8.9652 24.4995C9.06127 24.5063 9.15166 24.5475 9.21976 24.6156L18.5641 33.9599C18.6322 34.028 18.6734 34.1184 18.6802 34.2145L19.2166 41.7809C19.2428 42.1502 18.7965 42.3538 18.5347 42.092L1.08765 24.645C0.825901 24.3832 1.02953 23.9369 1.39878 23.9631L8.9652 24.4995Z" fill="#050505"/>
</svg>
