<svg width="25" height="24" viewBox="0 0 25 24" fill="none" xmlns="http://www.w3.org/2000/svg">
<path d="M3.62684 4.38477C3.3127 4.38696 3.00169 4.44751 2.70963 4.56325L11.8136 11.573C11.8915 11.6329 11.9869 11.6654 12.0851 11.6654C12.1833 11.6654 12.2787 11.633 12.3566 11.5731L21.4671 4.56325C21.1751 4.44751 20.8641 4.387 20.5499 4.38477H3.62684ZM1.41064 5.69862C1.20149 6.07304 1.09063 6.49436 1.08838 6.92323V16.0227L7.1667 10.5519C7.19779 10.5239 7.22234 10.4894 7.23861 10.4509C7.25489 10.4123 7.26249 10.3707 7.26087 10.3289C7.25925 10.2871 7.24846 10.2462 7.22926 10.209C7.21005 10.1718 7.18291 10.1393 7.14975 10.1138L1.41064 5.69862ZM17.0117 10.5519L23.0884 16.0227V6.92323C23.0861 6.49436 23.0137 6.12753 22.7661 5.69862L17.0286 10.1138C16.9954 10.1393 16.9683 10.1718 16.9491 10.209C16.9299 10.2461 16.9191 10.2871 16.9175 10.3289C16.9158 10.3707 16.9234 10.4123 16.9397 10.4509C16.956 10.4894 16.9806 10.5239 17.0117 10.5519ZM8.53019 11.6014L1.32305 18.0918C1.72326 19.0096 2.6256 19.6064 3.62684 19.6155H20.5499C21.5511 19.6066 22.4535 19.0096 22.8537 18.0918L15.6466 11.6014C15.5751 11.537 15.4834 11.4997 15.3872 11.496C15.2911 11.4922 15.1968 11.5223 15.1205 11.5809L12.604 13.5171C12.3 13.7508 11.8768 13.7508 11.5727 13.5171L9.05624 11.581C8.97999 11.5224 8.88562 11.4923 8.78951 11.4961C8.6934 11.4998 8.60164 11.537 8.53019 11.6014Z" fill="white"/>
</svg>
