<svg id="Layer_1" enable-background="new 0 0 512 512" viewBox="0 0 512 512" xmlns="http://www.w3.org/2000/svg"><path d="m446.604 0h-381.208c-36.06 0-65.396 29.336-65.396 65.396v381.209c0 36.059 29.336 65.395 65.396 65.395h381.209c36.059 0 65.395-29.336 65.395-65.396v-381.208c0-36.06-29.336-65.396-65.396-65.396zm-381.208 32h381.209c18.414 0 33.395 14.981 33.395 33.396v179.524l-107.654-105.148c-3.3-3.224-7.834-4.866-12.431-4.505-4.599.361-8.819 2.689-11.577 6.388l-129.805 174.116-93.549-69.735c-6.281-4.682-15.028-4.127-20.667 1.31l-72.317 69.72v-251.67c0-18.415 14.981-33.396 33.396-33.396zm381.208 448h-381.208c-18.415 0-33.396-14.981-33.396-33.396v-85.089l84.748-81.707 95.487 71.18c7.085 5.282 17.109 3.818 22.39-3.265l128.44-172.284 116.935 114.213v156.953c0 18.414-14.981 33.395-33.396 33.395zm-254.727-285.347c36.832 0 66.796-29.965 66.796-66.796s-29.964-66.797-66.796-66.797-66.796 29.965-66.796 66.796 29.965 66.797 66.796 66.797zm0-101.593c19.187 0 34.796 15.609 34.796 34.796s-15.609 34.796-34.796 34.796-34.796-15.609-34.796-34.796 15.609-34.796 34.796-34.796z" fill="#000000" style="fill: rgb(102, 102, 102);"></path></svg>