<svg width="27" height="24" viewBox="0 0 27 24" fill="none" xmlns="http://www.w3.org/2000/svg">
<path d="M8.34921 19.3743C8.40246 19.2764 8.45355 19.1777 8.50243 19.0782L8.95711 18.1529L8.01828 17.7267C6.4537 17.0164 5.19185 16.0266 4.33104 14.8777C3.47327 13.7329 3.04112 12.4691 3.03857 11.2073C3.03891 9.27578 4.05102 7.34501 5.99817 5.8706C7.95128 4.39169 10.6464 3.53224 13.4964 3.53223C16.3463 3.53224 19.0414 4.39169 20.9945 5.8706C22.942 7.34525 23.9541 9.27639 23.9541 11.2082C23.9541 13.14 22.942 15.0711 20.9945 16.5458C19.0415 18.0246 16.3465 18.8841 13.4966 18.8841C12.4714 18.8825 11.4534 18.7694 10.4744 18.5491L10.0827 18.461L9.73871 18.6683C9.30137 18.9319 8.83659 19.168 8.34921 19.3743Z" fill="white" stroke="white" stroke-width="2"/>
</svg>
