<svg width="16" height="11" viewBox="0 0 16 11" fill="none" xmlns="http://www.w3.org/2000/svg">
<path fill-rule="evenodd" clip-rule="evenodd" d="M15.0434 1.5455C15.0434 1.04792 14.6873 0.644531 14.2487 0.644531H13.454C13.0153 0.644531 12.6593 1.04792 12.6593 1.5455V9.35371C12.6593 9.85129 13.0153 10.2547 13.454 10.2547H14.2487C14.6873 10.2547 15.0434 9.85129 15.0434 9.35371V1.5455ZM9.50544 2.5666H10.3001C10.7395 2.5666 11.0949 2.97964 11.0949 3.48915V9.33213C11.0949 9.84164 10.7395 10.2547 10.3001 10.2547H9.50544C9.0668 10.2547 8.71143 9.84164 8.71143 9.33213V3.48915C8.71143 2.97964 9.0668 2.5666 9.50544 2.5666ZM6.27735 4.64879H5.48336C5.04401 4.64879 4.68864 5.06711 4.68864 5.58307V9.32033C4.68864 9.83637 5.04401 10.2547 5.48336 10.2547H6.27735C6.71669 10.2547 7.07205 9.83637 7.07205 9.32033V5.58307C7.07205 5.06711 6.71669 4.64879 6.27735 4.64879ZM2.32952 6.5708H1.53481C1.09616 6.5708 0.740112 6.98314 0.740112 7.49175V9.33372C0.740112 9.84234 1.09616 10.2547 1.53481 10.2547H2.32952C2.76817 10.2547 3.12422 9.84234 3.12422 9.33372V7.49175C3.12422 6.98314 2.76817 6.5708 2.32952 6.5708Z" fill="white"/>
</svg>
