<svg width="11" height="11" viewBox="0 0 11 11" fill="none" xmlns="http://www.w3.org/2000/svg">
<path d="M5.67168 6.60493L2.59094 9.6942C2.39618 9.88785 2.14833 9.98433 1.84732 9.98433C1.5463 9.98433 1.29845 9.88785 1.1037 9.6942C0.910054 9.50056 0.813232 9.25417 0.813232 8.95434C0.813232 8.65519 0.910054 8.4088 1.1037 8.21516L4.19305 5.12588L1.1037 2.07172C0.910054 1.87696 0.813232 1.62905 0.813232 1.3281C0.813232 1.02708 0.910054 0.779162 1.1037 0.584408C1.29734 0.390764 1.54373 0.293945 1.84301 0.293945C2.1423 0.293945 2.38869 0.390764 2.58233 0.584408L5.67168 3.67376L8.72598 0.584408C8.92073 0.390764 9.16865 0.293945 9.4696 0.293945C9.77061 0.293945 10.0185 0.390764 10.2133 0.584408C10.4245 0.795611 10.5301 1.04651 10.5301 1.33691C10.5301 1.62738 10.4245 1.8694 10.2133 2.06304L7.12394 5.12588L10.2133 8.20683C10.4069 8.40116 10.5038 8.64964 10.5038 8.95017C10.5038 9.25139 10.4069 9.49917 10.2133 9.6942C10.002 9.9052 9.75118 10.0107 9.46072 10.0107C9.17032 10.0107 8.92823 9.9052 8.73458 9.6942L5.67168 6.60493Z" fill="white"/>
</svg>
