<svg width="133" height="28" viewBox="0 0 133 28" fill="none" xmlns="http://www.w3.org/2000/svg">
<path fill-rule="evenodd" clip-rule="evenodd" d="M20.1595 6.3084H24.9011V17.9041H32.3016V21.6923H20.1595V6.3084ZM43.8997 19.1529H38.4982L37.7559 21.6923H32.9095L38.677 6.3084H43.8472L49.6151 21.6923H44.6534L43.8997 19.1529ZM42.9055 15.8263L41.2096 10.2962L39.5241 15.8263H42.9055ZM51.1957 6.30878H58.2402C59.629 6.30878 60.7507 6.49721 61.6055 6.87523C62.4603 7.25286 63.167 7.79513 63.7251 8.50165C64.2837 9.20818 64.6883 10.0302 64.9394 10.9678C65.1905 11.9049 65.3161 12.8981 65.3161 13.9478C65.3161 15.5918 65.1297 16.8667 64.7564 17.7728C64.3828 18.6785 63.8645 19.438 63.2022 20.0501C62.5388 20.6622 61.8272 21.0698 61.0661 21.2724C60.0268 21.5526 59.0847 21.6923 58.2402 21.6923H51.1957V6.30878ZM55.9372 9.79228V18.198H57.0994C58.0901 18.198 58.7953 18.0875 59.2137 17.8672C59.6325 17.6469 59.9602 17.262 60.1975 16.7128C60.4349 16.164 60.5535 15.2737 60.5535 14.0422C60.5535 12.4123 60.2882 11.2963 59.7581 10.6949C59.2279 10.0932 58.3485 9.79228 57.1205 9.79228H55.9376H55.9372ZM66.9806 16.6027L71.492 16.3195C71.59 17.054 71.7887 17.6136 72.0888 17.9985C72.5773 18.621 73.2752 18.9326 74.1824 18.9326C74.8592 18.9326 75.3806 18.7733 75.7474 18.4548C76.1137 18.1366 76.2967 17.7678 76.2967 17.348C76.2967 16.9489 76.1221 16.592 75.7734 16.2773C75.4243 15.9626 74.615 15.6655 73.3448 15.3854C71.2654 14.9168 69.7824 14.2943 68.8965 13.5176C68.0031 12.7412 67.5567 11.7511 67.5567 10.5479C67.5567 9.75736 67.7849 9.01054 68.2419 8.30747C68.699 7.6044 69.3865 7.05176 70.3041 6.64957C71.2217 6.24738 72.4797 6.0459 74.0775 6.0459C76.0387 6.0459 77.5336 6.41163 78.5629 7.14272C79.5923 7.8738 80.2044 9.03663 80.4001 10.632L75.9303 10.8941C75.8117 10.2018 75.5621 9.69787 75.1819 9.38318C74.8014 9.06849 74.2766 8.91114 73.6067 8.91114C73.0554 8.91114 72.6401 9.02819 72.361 9.26229C72.0815 9.49677 71.9422 9.78192 71.9422 10.1177C71.9422 10.3626 72.057 10.5828 72.2875 10.7786C72.5111 10.982 73.0416 11.1704 73.8788 11.3454C75.9514 11.7933 77.4359 12.2461 78.3325 12.7043C79.2294 13.1626 79.8817 13.7309 80.2902 14.4094C80.6983 15.0883 80.9027 15.8474 80.9027 16.6867C80.9027 17.673 80.6301 18.5826 80.0862 19.4154C79.5418 20.2478 78.7808 20.8791 77.8042 21.3093C76.8269 21.7395 75.5954 21.9548 74.1089 21.9548C71.4993 21.9548 69.6917 21.4509 68.6868 20.4435C67.6819 19.4361 67.1134 18.1562 66.9806 16.6027ZM83.2681 6.3084H91.1502C92.8667 6.3084 94.1526 6.7175 95.0074 7.53647C95.8622 8.35467 96.2898 9.51942 96.2898 11.0307C96.2898 12.5838 95.824 13.7977 94.8926 14.6719C93.9608 15.5466 92.539 15.9837 90.6269 15.9837H88.0307V21.6923H83.2681V6.3084ZM88.0307 12.8671H89.1929C90.107 12.8671 90.749 12.7078 91.1184 12.3896C91.4886 12.0711 91.6735 11.6635 91.6735 11.1669C91.6735 10.6842 91.5127 10.2751 91.1919 9.93926C90.8711 9.60346 90.2674 9.43537 89.3812 9.43537H88.0307V12.8671ZM106.391 19.1529H100.99L100.247 21.6923H95.4002L101.168 6.3084H106.339L112.106 21.6923H107.145L106.391 19.1529ZM105.397 15.8263L103.701 10.2962L102.016 15.8263H105.397Z" fill="#A0A0A0"/>
</svg>
