<svg width="133" height="28" viewBox="0 0 133 28" fill="none" xmlns="http://www.w3.org/2000/svg">
<path d="M10.4042 13.964C10.4042 9.05486 14.4039 5.07422 19.3365 5.07422C22.9631 5.07422 26.0848 7.22604 27.4849 10.3172L15.6723 22.0735C15.1675 21.8472 14.6861 21.5757 14.233 21.2605L21.5629 13.9655H19.3365L13.021 20.2509C11.3434 18.5859 10.401 16.3233 10.4042 13.9655M28.2688 13.9671L19.3396 22.8537C24.2707 22.8521 28.2673 18.8746 28.2688 13.9671Z" fill="#A0A0A0"/>
<path fill-rule="evenodd" clip-rule="evenodd" d="M33.0055 7.77734V19.9221H34.7113V16.1568H37.2592C39.5765 16.1334 41.4627 14.3889 41.4627 12.1013C41.4627 9.56247 39.6267 7.77734 37.2686 7.77734H33.0039H33.0055ZM39.8305 11.9889C39.8305 13.412 38.664 14.6619 37.2404 14.6697H34.7113V9.27535H37.2278C38.6562 9.27535 39.8305 10.4909 39.8305 11.9889Z" fill="#A0A0A0"/>
<path d="M109.96 19.9221V7.77734H111.675V19.9221H109.96ZM44.0638 19.9221V7.78358H42.3485V19.9221H44.0638Z" fill="#A0A0A0"/>
<path fill-rule="evenodd" clip-rule="evenodd" d="M54.6299 19.9221V10.8296H52.9146V12.1091H52.8816C52.173 11.0745 51.0519 10.583 49.7161 10.583C47.0287 10.583 44.934 12.6178 44.934 15.5233C44.934 18.1495 47.1118 20.1515 49.7819 20.1515C51.0848 20.1515 52.2388 19.5945 52.8816 18.51H52.9146V19.9221H54.6299ZM49.7647 18.5927C48.0494 18.5927 46.6477 17.0993 46.6477 15.3922C46.6477 13.6851 48.0494 12.1434 49.7647 12.1434C51.6603 12.1434 52.9475 13.6212 52.9475 15.3922C52.9475 17.1633 51.5458 18.5927 49.7647 18.5927Z" fill="#A0A0A0"/>
<path d="M64.1988 19.9221V14.4731C64.1988 11.9624 62.5823 10.583 60.3888 10.583C59.3336 10.583 58.3929 10.9279 57.7171 11.797H57.6842V10.828H55.9705V19.9206H57.8002V14.9475C57.8002 13.2404 58.7064 12.1403 60.2069 12.1403C61.7074 12.1403 62.4835 13.0438 62.4835 14.9631V19.9206H64.1988V19.9221Z" fill="#A0A0A0"/>
<path fill-rule="evenodd" clip-rule="evenodd" d="M74.3604 16.0492C74.3996 15.7652 74.3996 15.5202 74.3996 15.2612C74.3996 12.6521 72.3551 10.583 69.6661 10.583C67.2422 10.583 65.0659 12.585 65.0659 15.4578C65.0659 17.8874 67.1434 20.1515 69.7163 20.1515C71.6793 20.1515 73.3946 18.9375 74.1033 17.0666H72.388C71.8596 18.0356 70.8546 18.5927 69.7822 18.5927C68.3946 18.5927 67.1998 17.6424 66.7922 16.1568H74.3416C74.3479 16.121 74.3542 16.0851 74.3604 16.0492ZM66.7953 14.6698C66.9929 13.1811 68.3554 12.1434 69.7163 12.1434C71.0772 12.1434 72.4742 13.1967 72.6702 14.6698H66.7953Z" fill="#A0A0A0"/>
<path d="M86.8785 10.8124H88.7867C88.4966 9.3206 86.786 7.77734 84.4859 7.77734C82.1858 7.77734 80.2338 9.14739 80.2338 11.204C80.2338 12.8643 81.427 13.8833 83.3539 14.4029L84.7713 14.7883C86.0538 15.1269 87.0463 15.5763 87.0463 16.6374C87.0463 17.8031 85.9284 18.5724 84.3872 18.5724C83.1595 18.5724 82.1121 18.0917 81.8095 17.0884H79.903C80.2165 18.9281 81.8613 20.1515 84.3997 20.1515C87.2156 20.1515 88.8384 18.6769 88.8384 16.6546C88.8384 14.5043 86.9083 13.6399 85.3859 13.2669L84.2147 12.9642C83.2786 12.7254 82.0322 12.2417 82.0384 11.0995C82.0384 10.0852 82.9698 9.27535 84.4452 9.27535C85.7073 9.27535 86.6355 9.87299 86.8785 10.8124ZM98.5939 17.0868C97.8335 19.0342 96.1276 20.1515 94.1552 20.1515C91.5336 20.1515 89.4719 18.0512 89.4719 15.4577C89.4719 12.7176 91.4678 10.583 94.1379 10.583C96.1527 10.583 97.9965 11.8017 98.6033 13.6711H96.6701C96.1543 12.7114 95.3546 12.1418 94.1881 12.1418C92.3897 12.1418 91.1871 13.5041 91.1871 15.3579C91.1871 17.2117 92.4242 18.5911 94.1552 18.5911C95.2621 18.5911 96.1621 18.034 96.6622 17.0853H98.5955L98.5939 17.0868Z" fill="#A0A0A0"/>
<path fill-rule="evenodd" clip-rule="evenodd" d="M108.617 10.8296V19.9221H106.902V18.51H106.869C106.226 19.5929 105.071 20.1515 103.769 20.1515C101.098 20.1515 98.9215 18.1495 98.9215 15.5233C98.9215 12.6178 101.016 10.583 103.704 10.583C105.039 10.583 106.161 11.0761 106.871 12.1091H106.904V10.8296H108.619H108.617ZM100.635 15.3922C100.635 17.0993 102.037 18.5927 103.752 18.5927C105.467 18.5927 106.935 17.1149 106.935 15.3922C106.935 13.6695 105.649 12.1434 103.752 12.1434C102.037 12.1434 100.635 13.604 100.635 15.3922ZM121.841 15.9992C121.874 15.7371 121.874 15.5046 121.874 15.2612C121.874 15.2206 121.874 15.18 121.872 15.1394C121.865 14.818 121.825 14.4981 121.753 14.186C121.628 13.6336 121.4 13.1078 121.084 12.635C120.248 11.3913 118.82 10.5846 117.141 10.5846C114.717 10.5846 112.54 12.5866 112.54 15.4593C112.54 15.7636 112.573 16.0648 112.634 16.3581C113.067 18.4195 114.939 20.1531 117.191 20.1531C119.154 20.1531 120.869 18.9391 121.578 17.0681H119.862C119.797 17.1867 119.724 17.3022 119.643 17.4114C119.083 18.1667 118.196 18.5942 117.257 18.5942C115.867 18.5942 114.674 17.6439 114.267 16.1584H121.816L121.824 16.1147C121.83 16.0757 121.836 16.0367 121.84 15.9992M114.295 14.5153C114.563 13.1093 115.877 12.1434 117.191 12.1434C118.616 12.1434 119.949 13.1967 120.145 14.6698H114.27C114.276 14.6183 114.285 14.5652 114.295 14.5153Z" fill="#A0A0A0"/>
<path d="M77.4538 10.8311H79.3698V12.3197H77.4538V17.4036C77.4538 18.2962 77.8881 18.5443 78.3742 18.5895C78.4087 18.5895 78.4385 18.5911 78.4651 18.5926C78.7599 18.6082 78.9919 18.563 79.1315 18.5177C79.3322 18.9703 79.6066 19.3885 79.9421 19.752C79.3479 20.1078 78.6423 20.1749 78.1092 20.1437C77.8568 20.1312 77.6075 20.0891 77.3676 20.0157C76.3187 19.6974 75.9878 18.9469 75.8687 18.6394H75.8765C75.7809 18.357 75.7338 18.0605 75.7385 17.7641V12.3197H74.3917V10.8311H75.7385V7.77734H77.4538V10.8311Z" fill="#A0A0A0"/>
</svg>
