<svg width="134" height="60" viewBox="0 0 134 60" fill="none" xmlns="http://www.w3.org/2000/svg">
<path d="M55.2764 21.2545V30.948H52.1283V8.31942H61.292C65.5621 8.31942 69.4271 9.69085 69.4271 14.8025C69.4271 18.7922 67.3699 20.4441 64.1907 21.0051L70.705 30.948H66.8712L60.3881 21.2545H55.2764ZM61.292 11.4051H55.2764V18.0753H61.292C62.8816 18.0753 64.3154 17.7324 65.1881 17.2649C65.8738 16.7038 66.3102 15.7999 66.3102 14.8025C66.3102 13.7428 65.8738 12.9012 65.1881 12.309C64.3154 11.8103 62.8504 11.4051 61.292 11.4051ZM80.7718 28.1116C82.9848 28.1116 84.6679 26.8649 85.6341 25.0571H88.9068C87.5354 28.6415 84.6367 31.135 80.8029 31.1662H80.7406C75.3172 31.0103 72.2627 27.5818 72.2627 22.4077C72.2627 17.5142 75.5978 13.5558 80.6159 13.5558C85.6653 13.5558 89.0627 17.7324 89.0627 23.9662H75.5978C76.0965 26.5532 77.8731 28.1116 80.7718 28.1116ZM80.6159 16.6103C77.9666 16.6103 76.0653 18.4181 75.5042 20.9428H85.8835C85.2913 18.4181 83.39 16.6103 80.6159 16.6103ZM109.396 27.5506V30.5116C108.306 30.9792 107.433 31.135 106.654 31.135H106.622C105.594 31.0103 104.846 30.5428 104.316 29.5142C102.415 30.7298 99.8276 31.1973 98.1133 31.1973C94.1861 31.1973 91.9419 29.5142 91.9419 26.4909C91.9419 23.4051 93.8744 21.6909 98.6744 20.9428L103.88 20.1636V19.4779C103.88 17.6077 101.916 16.4857 99.5159 16.4857C97.4276 16.4857 95.9315 17.6077 94.8094 20.1012L91.8796 18.7922C93.438 15.1766 95.8068 13.4623 99.5159 13.4623C103.786 13.4623 106.965 15.5506 106.965 19.4779V27.3948C106.965 28.7662 108.119 28.5792 109.396 27.5506ZM103.88 25.1818V23.2805L99.5783 23.9038C96.7419 24.4337 95.0588 25.2753 95.0588 26.4909C95.0588 27.5506 96.2744 28.2051 98.238 28.2051C100.295 28.2051 103.88 27.3636 103.88 25.1818ZM115.911 31.1973C113.23 31.1973 111.983 29.7636 111.983 26.522V8.50644H115.1V26.522C115.1 27.4259 115.319 28.2675 116.378 28.2675C116.97 28.2675 117.843 27.8935 118.654 27.2389V30.574C117.563 31.0415 116.659 31.1973 115.911 31.1973Z" fill="white"/>
<path d="M53.2099 48.3008V52.7174H51.5283V38.2317H53.2099V39.7309C54.1621 38.799 55.4385 38.2722 56.958 38.2722C60.2806 38.2722 62.4483 40.8249 62.4483 44.026C62.4483 47.2068 60.2806 49.7392 56.958 49.7392C55.4385 49.7392 54.1824 49.2327 53.2099 48.3008ZM56.958 48.0779C59.3081 48.0779 60.8073 46.2546 60.8073 44.026C60.8073 41.7366 59.3283 39.9133 56.958 39.9133C54.932 39.9133 53.5543 41.6556 53.2099 43.56V44.4312C53.5543 46.3559 54.932 48.0779 56.958 48.0779ZM66.2774 43.6005V49.5974H64.5959V34.8888H66.2774V39.7512C67.2296 38.8192 68.506 38.2925 70.0255 38.2925C73.3481 38.2925 75.5159 40.8655 75.5159 44.0462V49.5974H73.8748V44.0462C73.8748 41.7772 72.3756 39.9335 70.0255 39.9335C68.0198 39.9335 66.6219 41.6759 66.2774 43.6005ZM82.6578 49.7595C79.3959 49.7595 77.2281 47.2473 77.2281 44.0462C77.2281 40.8655 79.3959 38.2925 82.6578 38.2925C85.9804 38.2925 88.1481 40.8655 88.1481 44.0462C88.1481 47.2473 85.9804 49.7595 82.6578 49.7595ZM82.6578 48.0982C85.0484 48.0982 86.5071 46.2951 86.5071 44.0462C86.5071 41.7772 85.0281 39.9335 82.6578 39.9335C80.3887 39.9335 78.8894 41.7772 78.8894 44.0462C78.8894 46.2951 80.3481 48.0982 82.6578 48.0982ZM94.3897 49.7797C92.3435 49.7797 91.371 48.6857 91.371 46.4166V39.8322H89.3856V38.2317H91.371V34.8888H93.0121V38.2317H96.8006V39.8322H93.0121V46.4166C93.0121 47.5512 93.4983 48.159 94.3897 48.159C94.876 48.159 95.4838 47.7538 96.1928 46.9029L97.1451 48.4426L96.8006 48.8478C96.2941 49.4556 95.3622 49.7797 94.3897 49.7797ZM104.084 49.7595C100.822 49.7595 98.6544 47.2473 98.6544 44.0462C98.6544 40.8655 100.822 38.2925 104.084 38.2925C107.407 38.2925 109.574 40.8655 109.574 44.0462C109.574 47.2473 107.407 49.7595 104.084 49.7595ZM104.084 48.0982C106.475 48.0982 107.933 46.2951 107.933 44.0462C107.933 41.7772 106.454 39.9335 104.084 39.9335C101.815 39.9335 100.316 41.7772 100.316 44.0462C100.316 46.2951 101.774 48.0982 104.084 48.0982Z" fill="white"/>
<rect x="50.4141" y="58.9092" width="82.9091" height="1.09091" fill="white"/>
<path d="M20.0967 8.44828C18.8619 8.57769 17.2625 8.91886 16.016 9.31885C14.1579 9.9306 11.4531 11.2835 11.4531 11.6129C11.4531 11.7188 13.2054 17.1658 14.6048 21.401L15.1575 23.0715L16.9803 21.7421C17.9799 21.0127 21.6607 18.3422 25.1534 15.8011C28.6461 13.26 31.492 11.1541 31.492 11.1071C31.4567 10.9306 28.9519 9.77767 27.7523 9.37767C25.859 8.74239 24.4831 8.5071 22.3898 8.44828C21.3902 8.42475 20.3554 8.42475 20.0967 8.44828Z" fill="white"/>
<path d="M32.0763 13.472C31.3707 14.0014 29.1833 15.6013 27.2312 17.0131C23.7267 19.5542 23.6915 19.5895 23.9502 19.7895C24.7616 20.4248 39.8613 31.354 39.9789 31.401C40.3082 31.5304 40.6728 28.4834 40.5787 26.3776C40.367 22.0483 38.7206 17.9542 35.8865 14.7661C35.028 13.8014 33.6168 12.4837 33.4639 12.5073C33.4169 12.5073 32.7936 12.9426 32.0763 13.472Z" fill="white"/>
<path d="M8.46408 13.9655C5.74754 16.7066 4.03059 20.0124 3.25444 23.9653C2.93692 25.6123 2.98396 29.1887 3.34852 30.9063L3.63075 32.2004L9.73414 32.2357C14.591 32.2592 15.814 32.2357 15.767 32.1181C15.7435 32.0357 15.4965 31.3063 15.2378 30.4946C14.9791 29.6828 13.6972 25.7417 12.3919 21.73C11.0865 17.7183 9.91054 14.1066 9.79294 13.6949C9.66358 13.2949 9.53423 12.9655 9.51071 12.9655C9.48719 12.9655 9.01679 13.4125 8.46408 13.9655Z" fill="white"/>
<path d="M28.5619 29.8713C28.0092 31.6007 27.1624 34.2124 26.6803 35.6712C26.2099 37.13 25.2809 39.9887 24.6223 42.024C23.952 44.0593 23.3875 45.7769 23.3522 45.8357C23.2464 46.0239 24.9986 45.8122 26.4098 45.4475C31.8782 44.071 36.6056 40.1182 38.9341 34.9653C39.4045 33.9065 39.428 33.8359 39.2281 33.6595C38.9459 33.3889 29.926 26.8478 29.7379 26.7772C29.632 26.7302 29.2792 27.6478 28.5619 29.8713Z" fill="white"/>
<path d="M4.57056 34.7533C4.6176 34.9062 4.86456 35.4239 5.12327 35.9062C7.63989 40.659 12.0381 44.1413 17.1537 45.4354C18.6354 45.8001 20.8345 46.0942 20.9756 45.9413C21.0227 45.8942 21.2931 45.1648 21.5636 44.3178C22.2457 42.1884 24.6447 34.8239 24.7035 34.6356C24.7506 34.5298 22.6926 34.4945 14.6253 34.4945H4.5L4.57056 34.7533Z" fill="white"/>
</svg>
