<svg width="31" height="31" viewBox="0 0 31 31" fill="none" xmlns="http://www.w3.org/2000/svg">
    <path d="M17.1149 24.3018C17.1298 24.0922 17.2198 23.895 17.3684 23.7464L23.6081 17.5067C23.7567 17.3581 23.9539 17.2681 24.1635 17.2532L27.6663 17.0049C28.4719 16.9478 28.9162 17.9215 28.3451 18.4926L18.3543 28.4834C17.7832 29.0545 16.8095 28.6102 16.8666 27.8046L17.1149 24.3018Z" fill="#F63737"/>
    <path d="M23.9527 13.7383C23.7431 13.7235 23.5459 13.6335 23.3973 13.4849L17.1575 7.24518C17.009 7.0966 16.919 6.89939 16.9041 6.68978L16.6558 3.18696C16.5987 2.38132 17.5724 1.93704 18.1435 2.50814L28.1343 12.499C28.7054 13.0701 28.2611 14.0438 27.4555 13.9867L23.9527 13.7383Z" fill="#F63737"/>
    <path d="M13.0101 6.68503C12.9952 6.89463 12.9052 7.09184 12.7566 7.24043L6.51691 13.4802C6.36833 13.6287 6.17112 13.7187 5.96151 13.7336L2.45868 13.9819C1.65305 14.039 1.20877 13.0653 1.77986 12.4942L11.7707 2.50338C12.3418 1.93228 13.3155 2.37657 13.2584 3.1822L13.0101 6.68503Z" fill="#F63737"/>
    <path d="M6.17233 17.249C6.38194 17.2638 6.57915 17.3538 6.72773 17.5024L12.9675 23.7421C13.116 23.8907 13.206 24.0879 13.2209 24.2975L13.4692 27.8003C13.5263 28.606 12.5526 29.0503 11.9815 28.4792L1.99068 18.4883C1.41959 17.9172 1.86387 16.9435 2.66951 17.0007L6.17233 17.249Z" fill="#F63737"/>
</svg>
