<svg width="138" height="60" viewBox="0 0 138 60" fill="none" xmlns="http://www.w3.org/2000/svg">
<g clip-path="url(#clip0_2178_3200)">
<path d="M25.4068 39.4589C25.4217 39.2492 25.5117 39.052 25.6603 38.9034L35.1834 29.3804C35.332 29.2318 35.5292 29.1418 35.7388 29.1269L42.2599 28.6647C43.0655 28.6075 43.5098 29.5812 42.9387 30.1523L26.4322 46.6588C25.8611 47.2299 24.8875 46.7856 24.9446 45.98L25.4068 39.4589Z" fill="#F63737"/>
<path d="M35.4264 23.8671C35.2168 23.8522 35.0196 23.7622 34.871 23.6137L25.3479 14.0906C25.1993 13.942 25.1093 13.7448 25.0945 13.5352L24.6322 7.01403C24.5751 6.2084 25.5487 5.76411 26.1198 6.33521L42.6263 22.8417C43.1974 23.4128 42.7531 24.3865 41.9475 24.3294L35.4264 23.8671Z" fill="#F63737"/>
<path d="M19.265 13.528C19.2502 13.7376 19.1602 13.9348 19.0116 14.0834L9.48851 23.6065C9.33992 23.755 9.14271 23.845 8.93311 23.8599L2.41198 24.3222C1.60634 24.3793 1.16205 23.4056 1.73315 22.8345L18.2396 6.32801C18.8107 5.75691 19.7844 6.2012 19.7273 7.00683L19.265 13.528Z" fill="#F63737"/>
<path d="M9.2494 29.1207C9.45901 29.1356 9.65622 29.2256 9.8048 29.3741L19.3279 38.8972C19.4765 39.0458 19.5665 39.243 19.5813 39.4526L20.0436 45.9738C20.1007 46.7794 19.127 47.2237 18.5559 46.6526L2.04945 30.1461C1.47835 29.575 1.92264 28.6013 2.72827 28.6584L9.2494 29.1207Z" fill="#F63737"/>
</g>
<path d="M59.6827 21.2545V30.948H56.5346V8.31942H65.6671C70.8099 8.31942 73.8333 10.3454 73.8333 14.8025C73.8333 19.2597 70.8099 21.2545 65.6671 21.2545H59.6827ZM65.6671 11.4051H59.6827V18.0753H65.6671C68.8775 18.0753 70.7164 17.0467 70.7164 14.8025C70.7164 12.5272 68.8775 11.4051 65.6671 11.4051ZM81.8137 31.1973C79.1332 31.1973 77.8865 29.7636 77.8865 26.522V8.50644H81.0034V26.522C81.0034 27.4259 81.2215 28.2675 82.2813 28.2675C82.8735 28.2675 83.7462 27.8935 84.5566 27.2389V30.574C83.4657 31.0415 82.5618 31.1973 81.8137 31.1973ZM103.484 27.5506V30.5116C102.393 30.9792 101.52 31.135 100.741 31.135H100.71C99.6815 31.0103 98.9335 30.5428 98.4036 29.5142C96.5023 30.7298 93.9153 31.1973 92.201 31.1973C88.2737 31.1973 86.0296 29.5142 86.0296 26.4909C86.0296 23.4051 87.962 21.6909 92.762 20.9428L97.9672 20.1636V19.4779C97.9672 17.6077 96.0036 16.4857 93.6036 16.4857C91.5153 16.4857 90.0192 17.6077 88.8971 20.1012L85.9672 18.7922C87.5257 15.1766 89.8945 13.4623 93.6036 13.4623C97.8737 13.4623 101.053 15.5506 101.053 19.4779V27.3948C101.053 28.7662 102.206 28.5792 103.484 27.5506ZM97.9672 25.1818V23.2805L93.6659 23.9038C90.8296 24.4337 89.1465 25.2753 89.1465 26.4909C89.1465 27.5506 90.362 28.2051 92.3257 28.2051C94.3828 28.2051 97.9672 27.3636 97.9672 25.1818ZM111.122 31.1973C107.881 31.1973 106.354 29.4831 106.354 25.9298V16.4545H103.393V13.4623H106.354V8.31942H109.377V13.4623H115.019V16.4545H109.377V25.9298C109.377 27.3948 110.032 28.2051 111.122 28.2051C111.746 28.2051 112.65 27.5194 113.834 26.0857L115.611 28.9532L114.956 29.7324C114.146 30.6986 112.65 31.1973 111.122 31.1973ZM126.435 28.1116C128.648 28.1116 130.331 26.8649 131.298 25.0571H134.57C133.199 28.6415 130.3 31.135 126.467 31.1662H126.404C120.981 31.0103 117.926 27.5818 117.926 22.4077C117.926 17.5142 121.261 13.5558 126.279 13.5558C131.329 13.5558 134.726 17.7324 134.726 23.9662H121.261C121.76 26.5532 123.537 28.1116 126.435 28.1116ZM126.279 16.6103C123.63 16.6103 121.729 18.4181 121.168 20.9428H131.547C130.955 18.4181 129.054 16.6103 126.279 16.6103Z" fill="#F63737"/>
<path d="M58.3658 49.7797C56.7045 49.7797 55.9346 48.8681 55.9346 46.8218V34.8888H57.6162V46.8218C57.6162 47.7335 57.8593 48.0172 58.3658 48.159C58.8115 48.2805 59.5408 48.1185 60.0271 47.7335V49.4151C59.399 49.6785 58.852 49.7797 58.3658 49.7797ZM72.2956 47.693V49.3746C71.6676 49.6379 71.1408 49.7392 70.6546 49.7392H70.6343C69.9657 49.6379 69.4592 49.2935 69.1553 48.5439C67.8992 49.4353 66.0759 49.7797 64.8805 49.7797C62.3886 49.7797 60.9299 48.706 60.9299 46.8016C60.9299 44.8364 62.186 43.7423 65.306 43.2764L68.973 42.7294V42.081C68.973 40.7034 67.5751 39.8525 65.8327 39.8525C64.3538 39.8525 63.3003 40.6021 62.5507 42.2229L60.9704 41.5138C61.9226 39.2852 63.4421 38.2317 65.8327 38.2317C68.5881 38.2317 70.6546 39.5688 70.6546 42.081V47.4094C70.6546 47.8753 70.8166 48.1185 71.08 48.159C71.4852 48.1387 71.9512 47.9766 72.2956 47.693ZM68.973 45.9304V44.3907L65.8327 44.8566C63.7865 45.2416 62.6317 45.8696 62.6317 46.8016C62.6317 47.6525 63.5231 48.159 64.9818 48.159C66.4405 48.159 68.973 47.5512 68.973 45.9304ZM79.5655 49.7595C78.046 49.7595 76.7697 49.253 75.8175 48.3413V49.5974H74.1359V34.8888H75.8175V39.7512C76.7697 38.8192 78.046 38.2925 79.5655 38.2925C82.8881 38.2925 85.0559 40.8655 85.0559 44.0462C85.0559 47.2473 82.8881 49.7595 79.5655 49.7595ZM79.5655 48.0982C81.9359 48.0982 83.4149 46.2951 83.4149 44.0462C83.4149 41.7772 81.9157 39.9335 79.5655 39.9335C77.5396 39.9335 76.1619 41.6759 75.8175 43.6005V44.492C76.1619 46.3761 77.5396 48.0982 79.5655 48.0982Z" fill="#F63737"/>
<rect x="54.8203" y="58.9092" width="82.9091" height="1.09091" fill="#F63737"/>
<defs>
<clipPath id="clip0_2178_3200">
<rect width="43.6364" height="43.6364" fill="white" transform="translate(0.273438 4.67529)"/>
</clipPath>
</defs>
</svg>
