<svg width="13" height="13" viewBox="0 0 13 13" fill="none" xmlns="http://www.w3.org/2000/svg">
    <path d="M9.53005 8.23417H8.98173L8.78739 8.04677C9.46758 7.25554 9.87708 6.22833 9.87708 5.11103C9.87708 2.61934 7.85735 0.599609 5.36566 0.599609C2.87397 0.599609 0.854248 2.61934 0.854248 5.11103C0.854248 7.60258 2.87397 9.6223 5.36566 9.6223C6.48311 9.6223 7.51033 9.2128 8.30156 8.53262L8.48895 8.72695V9.27527L11.9593 12.7386L12.9934 11.7045L9.53005 8.23417ZM5.36566 8.23417C3.63744 8.23417 2.24238 6.83911 2.24238 5.11103C2.24238 3.38281 3.63744 1.98774 5.36566 1.98774C7.09388 1.98774 8.48895 3.38281 8.48895 5.11103C8.48895 6.83911 7.09388 8.23417 5.36566 8.23417Z" fill="white"/>
</svg>
