<svg width="25" height="24" viewBox="0 0 25 24" fill="none" xmlns="http://www.w3.org/2000/svg">
<g clip-path="url(#clip0_748_9556)">
<path d="M19.6382 4.91C17.7682 3.03 15.2782 2 12.6282 2C7.16818 2 2.71818 6.45 2.71818 11.91C2.71818 13.66 3.17818 15.36 4.03818 16.86L2.63818 22L7.88818 20.62C9.33818 21.41 10.9682 21.83 12.6282 21.83C18.0882 21.83 22.5382 17.38 22.5382 11.92C22.5382 9.27 21.5082 6.78 19.6382 4.91ZM12.6282 20.15C11.1482 20.15 9.69818 19.75 8.42818 19L8.12818 18.82L5.00818 19.64L5.83818 16.6L5.63818 16.29C4.81818 14.98 4.37818 13.46 4.37818 11.91C4.37818 7.37 8.07818 3.67 12.6182 3.67C14.8182 3.67 16.8882 4.53 18.4382 6.09C19.9982 7.65 20.8482 9.72 20.8482 11.92C20.8682 16.46 17.1682 20.15 12.6282 20.15ZM17.1482 13.99C16.8982 13.87 15.6782 13.27 15.4582 13.18C15.2282 13.1 15.0682 13.06 14.8982 13.3C14.7282 13.55 14.2582 14.11 14.1182 14.27C13.9782 14.44 13.8282 14.46 13.5782 14.33C13.3282 14.21 12.5282 13.94 11.5882 13.1C10.8482 12.44 10.3582 11.63 10.2082 11.38C10.0682 11.13 10.1882 11 10.3182 10.87C10.4282 10.76 10.5682 10.58 10.6882 10.44C10.8082 10.3 10.8582 10.19 10.9382 10.03C11.0182 9.86 10.9782 9.72 10.9182 9.6C10.8582 9.48 10.3582 8.26 10.1582 7.76C9.95818 7.28 9.74818 7.34 9.59818 7.33C9.44818 7.33 9.28818 7.33 9.11818 7.33C8.94818 7.33 8.68818 7.39 8.45818 7.64C8.23818 7.89 7.59818 8.49 7.59818 9.71C7.59818 10.93 8.48818 12.11 8.60818 12.27C8.72818 12.44 10.3582 14.94 12.8382 16.01C13.4282 16.27 13.8882 16.42 14.2482 16.53C14.8382 16.72 15.3782 16.69 15.8082 16.63C16.2882 16.56 17.2782 16.03 17.4782 15.45C17.6882 14.87 17.6882 14.38 17.6182 14.27C17.5482 14.16 17.3982 14.11 17.1482 13.99Z" fill="white"/>
</g>
<defs>
<clipPath id="clip0_748_9556">
<rect width="24" height="24" fill="white" transform="translate(0.588379)"/>
</clipPath>
</defs>
</svg>
