<svg width="14" height="11" viewBox="0 0 14 11" fill="none" xmlns="http://www.w3.org/2000/svg">
<path fill-rule="evenodd" clip-rule="evenodd" d="M6.88837 2.56707C8.72625 2.56714 10.4933 3.28592 11.8252 4.57479C11.9252 4.67432 12.0855 4.67307 12.1841 4.57201L13.1426 3.58714C13.1932 3.53585 13.221 3.46644 13.2203 3.39419C13.2203 3.32194 13.1912 3.25281 13.1405 3.20214C9.64519 -0.208005 4.13153 -0.208005 0.63622 3.20214C0.585553 3.25281 0.556409 3.32187 0.556409 3.39412C0.555715 3.46637 0.583472 3.53585 0.633445 3.58714L1.59265 4.57201C1.69121 4.67321 1.85154 4.67446 1.95148 4.57479C3.28339 3.28585 5.05118 2.56707 6.88837 2.56707ZM6.88697 5.8568C7.88989 5.85673 8.85741 6.25567 9.60006 6.97604C9.7007 7.07828 9.85965 7.07606 9.95751 6.97105L10.9084 5.94258C10.9584 5.88865 10.9861 5.8155 10.9854 5.73943C10.9847 5.66343 10.9556 5.59083 10.9042 5.53801C8.64086 3.28453 5.13584 3.28453 2.87181 5.53801C2.82114 5.59083 2.79199 5.66343 2.7913 5.7395C2.7906 5.81557 2.81836 5.88872 2.86833 5.94258L3.81922 6.97105C3.91708 7.07606 4.07531 7.07828 4.17595 6.97604C4.9186 6.25616 5.88543 5.85728 6.88697 5.8568ZM8.75053 8.03442C8.75192 8.11653 8.72484 8.19572 8.67487 8.25326L7.06673 10.1668C7.01954 10.223 6.95569 10.2547 6.88837 10.2547C6.82104 10.2547 6.75717 10.223 6.70998 10.1668L5.10114 8.25326C5.05186 8.19572 5.02479 8.11646 5.02618 8.03435C5.02757 7.95224 5.05741 7.87451 5.10947 7.8194C6.13599 6.79524 7.64072 6.79524 8.66724 7.8194C8.7193 7.87451 8.74914 7.95231 8.75053 8.03442Z" fill="white"/>
</svg>
